<mxfile host="app.diagrams.net" modified="2020-10-28T07:24:53.382Z" agent="5.0 (Windows NT 10.0; Win64; x64) AppleWebKit/537.36 (KHTML, like Gecko) Chrome/85.0.4183.102 YaBrowser/20.9.3.126 Yowser/2.5 Safari/537.36" etag="Ec4ojRIamQeP2VUB1MxV" version="13.8.5" type="github">
  <diagram id="EH85qzDWQVyfbXiuArrS" name="ClassDiagram">
    <mxGraphModel dx="2069" dy="1657" grid="1" gridSize="10" guides="1" tooltips="1" connect="1" arrows="1" fold="1" page="1" pageScale="1" pageWidth="827" pageHeight="1169" math="0" shadow="0">
      <root>
        <mxCell id="0" />
        <mxCell id="1" parent="0" />
        <mxCell id="75Pp35tg5ylx49S4lADa-1" value="Номер" style="swimlane;fontStyle=1;align=center;verticalAlign=top;childLayout=stackLayout;horizontal=1;startSize=26;horizontalStack=0;resizeParent=1;resizeParentMax=0;resizeLast=0;collapsible=1;marginBottom=0;" parent="1" vertex="1">
          <mxGeometry x="640" y="14" width="320" height="398" as="geometry" />
        </mxCell>
        <mxCell id="75Pp35tg5ylx49S4lADa-2" value="- Номер комнаты: Строка" style="text;strokeColor=none;fillColor=none;align=left;verticalAlign=top;spacingLeft=4;spacingRight=4;overflow=hidden;rotatable=0;points=[[0,0.5],[1,0.5]];portConstraint=eastwest;" parent="75Pp35tg5ylx49S4lADa-1" vertex="1">
          <mxGeometry y="26" width="320" height="26" as="geometry" />
        </mxCell>
        <mxCell id="75Pp35tg5ylx49S4lADa-46" value="- Стоимость: Вещественный" style="text;strokeColor=none;fillColor=none;align=left;verticalAlign=top;spacingLeft=4;spacingRight=4;overflow=hidden;rotatable=0;points=[[0,0.5],[1,0.5]];portConstraint=eastwest;" parent="75Pp35tg5ylx49S4lADa-1" vertex="1">
          <mxGeometry y="52" width="320" height="26" as="geometry" />
        </mxCell>
        <mxCell id="T7MyWOEh3WLNHHNDLz0Q-10" value="- Доступность: Логический" style="text;strokeColor=none;fillColor=none;align=left;verticalAlign=top;spacingLeft=4;spacingRight=4;overflow=hidden;rotatable=0;points=[[0,0.5],[1,0.5]];portConstraint=eastwest;" parent="75Pp35tg5ylx49S4lADa-1" vertex="1">
          <mxGeometry y="78" width="320" height="26" as="geometry" />
        </mxCell>
        <mxCell id="75Pp35tg5ylx49S4lADa-45" value="- Этаж: Строка" style="text;strokeColor=none;fillColor=none;align=left;verticalAlign=top;spacingLeft=4;spacingRight=4;overflow=hidden;rotatable=0;points=[[0,0.5],[1,0.5]];portConstraint=eastwest;" parent="75Pp35tg5ylx49S4lADa-1" vertex="1">
          <mxGeometry y="104" width="320" height="26" as="geometry" />
        </mxCell>
        <mxCell id="T7MyWOEh3WLNHHNDLz0Q-55" value="- Список Включенных услуг: Array&lt;Услуга&gt;" style="text;strokeColor=none;fillColor=none;align=left;verticalAlign=top;spacingLeft=4;spacingRight=4;overflow=hidden;rotatable=0;points=[[0,0.5],[1,0.5]];portConstraint=eastwest;" parent="75Pp35tg5ylx49S4lADa-1" vertex="1">
          <mxGeometry y="130" width="320" height="26" as="geometry" />
        </mxCell>
        <mxCell id="T7MyWOEh3WLNHHNDLz0Q-24" value="- Проживающие: Array&lt;Постоялец&gt;" style="text;strokeColor=none;fillColor=none;align=left;verticalAlign=top;spacingLeft=4;spacingRight=4;overflow=hidden;rotatable=0;points=[[0,0.5],[1,0.5]];portConstraint=eastwest;" parent="75Pp35tg5ylx49S4lADa-1" vertex="1">
          <mxGeometry y="156" width="320" height="26" as="geometry" />
        </mxCell>
        <mxCell id="T7MyWOEh3WLNHHNDLz0Q-11" value="- Категория номера: Категория номера" style="text;strokeColor=none;fillColor=none;align=left;verticalAlign=top;spacingLeft=4;spacingRight=4;overflow=hidden;rotatable=0;points=[[0,0.5],[1,0.5]];portConstraint=eastwest;" parent="75Pp35tg5ylx49S4lADa-1" vertex="1">
          <mxGeometry y="182" width="320" height="26" as="geometry" />
        </mxCell>
        <mxCell id="75Pp35tg5ylx49S4lADa-3" value="" style="line;strokeWidth=1;fillColor=none;align=left;verticalAlign=middle;spacingTop=-1;spacingLeft=3;spacingRight=3;rotatable=0;labelPosition=right;points=[];portConstraint=eastwest;" parent="75Pp35tg5ylx49S4lADa-1" vertex="1">
          <mxGeometry y="208" width="320" height="8" as="geometry" />
        </mxCell>
        <mxCell id="75Pp35tg5ylx49S4lADa-4" value="+ ИзменитьКатегориюНомера(Категория номера): void" style="text;strokeColor=none;fillColor=none;align=left;verticalAlign=top;spacingLeft=4;spacingRight=4;overflow=hidden;rotatable=0;points=[[0,0.5],[1,0.5]];portConstraint=eastwest;" parent="75Pp35tg5ylx49S4lADa-1" vertex="1">
          <mxGeometry y="216" width="320" height="26" as="geometry" />
        </mxCell>
        <mxCell id="T7MyWOEh3WLNHHNDLz0Q-13" value="+ ИзменитьСтоимость(Вещественный): void" style="text;strokeColor=none;fillColor=none;align=left;verticalAlign=top;spacingLeft=4;spacingRight=4;overflow=hidden;rotatable=0;points=[[0,0.5],[1,0.5]];portConstraint=eastwest;" parent="75Pp35tg5ylx49S4lADa-1" vertex="1">
          <mxGeometry y="242" width="320" height="26" as="geometry" />
        </mxCell>
        <mxCell id="T7MyWOEh3WLNHHNDLz0Q-14" value="+ ИзменитьДоступность(Логический):  void" style="text;strokeColor=none;fillColor=none;align=left;verticalAlign=top;spacingLeft=4;spacingRight=4;overflow=hidden;rotatable=0;points=[[0,0.5],[1,0.5]];portConstraint=eastwest;" parent="75Pp35tg5ylx49S4lADa-1" vertex="1">
          <mxGeometry y="268" width="320" height="26" as="geometry" />
        </mxCell>
        <mxCell id="T7MyWOEh3WLNHHNDLz0Q-15" value="+ ПроверитьДоступность(): Логический" style="text;strokeColor=none;fillColor=none;align=left;verticalAlign=top;spacingLeft=4;spacingRight=4;overflow=hidden;rotatable=0;points=[[0,0.5],[1,0.5]];portConstraint=eastwest;" parent="75Pp35tg5ylx49S4lADa-1" vertex="1">
          <mxGeometry y="294" width="320" height="26" as="geometry" />
        </mxCell>
        <mxCell id="T7MyWOEh3WLNHHNDLz0Q-25" value="+ КоличествоПроживающих(): Целый" style="text;strokeColor=none;fillColor=none;align=left;verticalAlign=top;spacingLeft=4;spacingRight=4;overflow=hidden;rotatable=0;points=[[0,0.5],[1,0.5]];portConstraint=eastwest;" parent="75Pp35tg5ylx49S4lADa-1" vertex="1">
          <mxGeometry y="320" width="320" height="26" as="geometry" />
        </mxCell>
        <mxCell id="T7MyWOEh3WLNHHNDLz0Q-26" value="+ ЗаселитьПостояльца(Постоялец) : void" style="text;strokeColor=none;fillColor=none;align=left;verticalAlign=top;spacingLeft=4;spacingRight=4;overflow=hidden;rotatable=0;points=[[0,0.5],[1,0.5]];portConstraint=eastwest;" parent="75Pp35tg5ylx49S4lADa-1" vertex="1">
          <mxGeometry y="346" width="320" height="26" as="geometry" />
        </mxCell>
        <mxCell id="T7MyWOEh3WLNHHNDLz0Q-27" value="+ ВыселитьПостояльца(Постоялец):   void" style="text;strokeColor=none;fillColor=none;align=left;verticalAlign=top;spacingLeft=4;spacingRight=4;overflow=hidden;rotatable=0;points=[[0,0.5],[1,0.5]];portConstraint=eastwest;" parent="75Pp35tg5ylx49S4lADa-1" vertex="1">
          <mxGeometry y="372" width="320" height="26" as="geometry" />
        </mxCell>
        <mxCell id="T7MyWOEh3WLNHHNDLz0Q-1" value="Extends" style="endArrow=block;endSize=16;endFill=0;html=1;exitX=0;exitY=0.5;exitDx=0;exitDy=0;entryX=0.994;entryY=0.063;entryDx=0;entryDy=0;entryPerimeter=0;" parent="1" source="T7MyWOEh3WLNHHNDLz0Q-4" target="YIouu2c4t1Xl3zVNgRc_-1" edge="1">
          <mxGeometry width="160" relative="1" as="geometry">
            <mxPoint x="160" y="280" as="sourcePoint" />
            <mxPoint x="166" y="406" as="targetPoint" />
            <Array as="points">
              <mxPoint x="70" y="295" />
              <mxPoint x="80" y="495" />
            </Array>
          </mxGeometry>
        </mxCell>
        <mxCell id="T7MyWOEh3WLNHHNDLz0Q-6" value="Extends" style="endArrow=block;endSize=16;endFill=0;html=1;exitX=-0.011;exitY=0.862;exitDx=0;exitDy=0;entryX=1.011;entryY=0.215;entryDx=0;entryDy=0;entryPerimeter=0;exitPerimeter=0;" parent="1" source="YIouu2c4t1Xl3zVNgRc_-17" target="YIouu2c4t1Xl3zVNgRc_-8" edge="1">
          <mxGeometry width="160" relative="1" as="geometry">
            <mxPoint x="325.14" y="367" as="sourcePoint" />
            <mxPoint x="180.0000000000001" y="584.01" as="targetPoint" />
          </mxGeometry>
        </mxCell>
        <mxCell id="T7MyWOEh3WLNHHNDLz0Q-30" value="Бронирование" style="swimlane;fontStyle=1;align=center;verticalAlign=top;childLayout=stackLayout;horizontal=1;startSize=26;horizontalStack=0;resizeParent=1;resizeParentMax=0;resizeLast=0;collapsible=1;marginBottom=0;" parent="1" vertex="1">
          <mxGeometry x="1081" y="387" width="295" height="190" as="geometry" />
        </mxCell>
        <mxCell id="T7MyWOEh3WLNHHNDLz0Q-31" value="- Время заселения: Дата" style="text;strokeColor=none;fillColor=none;align=left;verticalAlign=top;spacingLeft=4;spacingRight=4;overflow=hidden;rotatable=0;points=[[0,0.5],[1,0.5]];portConstraint=eastwest;" parent="T7MyWOEh3WLNHHNDLz0Q-30" vertex="1">
          <mxGeometry y="26" width="295" height="26" as="geometry" />
        </mxCell>
        <mxCell id="T7MyWOEh3WLNHHNDLz0Q-36" value="- Время выселения: Дата" style="text;strokeColor=none;fillColor=none;align=left;verticalAlign=top;spacingLeft=4;spacingRight=4;overflow=hidden;rotatable=0;points=[[0,0.5],[1,0.5]];portConstraint=eastwest;" parent="T7MyWOEh3WLNHHNDLz0Q-30" vertex="1">
          <mxGeometry y="52" width="295" height="26" as="geometry" />
        </mxCell>
        <mxCell id="T7MyWOEh3WLNHHNDLz0Q-37" value="- Время бронирования: Дата" style="text;strokeColor=none;fillColor=none;align=left;verticalAlign=top;spacingLeft=4;spacingRight=4;overflow=hidden;rotatable=0;points=[[0,0.5],[1,0.5]];portConstraint=eastwest;" parent="T7MyWOEh3WLNHHNDLz0Q-30" vertex="1">
          <mxGeometry y="78" width="295" height="26" as="geometry" />
        </mxCell>
        <mxCell id="T7MyWOEh3WLNHHNDLz0Q-39" value="- Список Номеров : Array&lt;Номер&gt;" style="text;strokeColor=none;fillColor=none;align=left;verticalAlign=top;spacingLeft=4;spacingRight=4;overflow=hidden;rotatable=0;points=[[0,0.5],[1,0.5]];portConstraint=eastwest;" parent="T7MyWOEh3WLNHHNDLz0Q-30" vertex="1">
          <mxGeometry y="104" width="295" height="26" as="geometry" />
        </mxCell>
        <mxCell id="T7MyWOEh3WLNHHNDLz0Q-42" value="- Статус Бронирования: Статус Бронирования" style="text;strokeColor=none;fillColor=none;align=left;verticalAlign=top;spacingLeft=4;spacingRight=4;overflow=hidden;rotatable=0;points=[[0,0.5],[1,0.5]];portConstraint=eastwest;" parent="T7MyWOEh3WLNHHNDLz0Q-30" vertex="1">
          <mxGeometry y="130" width="295" height="26" as="geometry" />
        </mxCell>
        <mxCell id="T7MyWOEh3WLNHHNDLz0Q-32" value="" style="line;strokeWidth=1;fillColor=none;align=left;verticalAlign=middle;spacingTop=-1;spacingLeft=3;spacingRight=3;rotatable=0;labelPosition=right;points=[];portConstraint=eastwest;" parent="T7MyWOEh3WLNHHNDLz0Q-30" vertex="1">
          <mxGeometry y="156" width="295" height="8" as="geometry" />
        </mxCell>
        <mxCell id="T7MyWOEh3WLNHHNDLz0Q-35" value="+ УзнатьОстатокВремение(): Дата" style="text;strokeColor=none;fillColor=none;align=left;verticalAlign=top;spacingLeft=4;spacingRight=4;overflow=hidden;rotatable=0;points=[[0,0.5],[1,0.5]];portConstraint=eastwest;" parent="T7MyWOEh3WLNHHNDLz0Q-30" vertex="1">
          <mxGeometry y="164" width="295" height="26" as="geometry" />
        </mxCell>
        <mxCell id="T7MyWOEh3WLNHHNDLz0Q-17" value="Юридическое лицо" style="swimlane;fontStyle=1;align=center;verticalAlign=top;childLayout=stackLayout;horizontal=1;startSize=26;horizontalStack=0;resizeParent=1;resizeParentMax=0;resizeLast=0;collapsible=1;marginBottom=0;" parent="1" vertex="1">
          <mxGeometry x="214" y="-90" width="200" height="112" as="geometry" />
        </mxCell>
        <mxCell id="T7MyWOEh3WLNHHNDLz0Q-18" value="- Назавние: Строка" style="text;strokeColor=none;fillColor=none;align=left;verticalAlign=top;spacingLeft=4;spacingRight=4;overflow=hidden;rotatable=0;points=[[0,0.5],[1,0.5]];portConstraint=eastwest;" parent="T7MyWOEh3WLNHHNDLz0Q-17" vertex="1">
          <mxGeometry y="26" width="200" height="26" as="geometry" />
        </mxCell>
        <mxCell id="Jc_IYQ02b9zDn7LcylZJ-4" value="- Постоялецы: Array&lt;Постоялец&gt;" style="text;strokeColor=none;fillColor=none;align=left;verticalAlign=top;spacingLeft=4;spacingRight=4;overflow=hidden;rotatable=0;points=[[0,0.5],[1,0.5]];portConstraint=eastwest;" parent="T7MyWOEh3WLNHHNDLz0Q-17" vertex="1">
          <mxGeometry y="52" width="200" height="26" as="geometry" />
        </mxCell>
        <mxCell id="T7MyWOEh3WLNHHNDLz0Q-19" value="- ИНН: Строка" style="text;strokeColor=none;fillColor=none;align=left;verticalAlign=top;spacingLeft=4;spacingRight=4;overflow=hidden;rotatable=0;points=[[0,0.5],[1,0.5]];portConstraint=eastwest;" parent="T7MyWOEh3WLNHHNDLz0Q-17" vertex="1">
          <mxGeometry y="78" width="200" height="26" as="geometry" />
        </mxCell>
        <mxCell id="T7MyWOEh3WLNHHNDLz0Q-21" value="" style="line;strokeWidth=1;fillColor=none;align=left;verticalAlign=middle;spacingTop=-1;spacingLeft=3;spacingRight=3;rotatable=0;labelPosition=right;points=[];portConstraint=eastwest;" parent="T7MyWOEh3WLNHHNDLz0Q-17" vertex="1">
          <mxGeometry y="104" width="200" height="8" as="geometry" />
        </mxCell>
        <mxCell id="75Pp35tg5ylx49S4lADa-49" value="Категория номера" style="swimlane;fontStyle=1;align=center;verticalAlign=top;childLayout=stackLayout;horizontal=1;startSize=26;horizontalStack=0;resizeParent=1;resizeParentMax=0;resizeLast=0;collapsible=1;marginBottom=0;" parent="1" vertex="1">
          <mxGeometry x="1131" width="220" height="86" as="geometry" />
        </mxCell>
        <mxCell id="Jc_IYQ02b9zDn7LcylZJ-35" value="- Название: Строка" style="text;strokeColor=none;fillColor=none;align=left;verticalAlign=top;spacingLeft=4;spacingRight=4;overflow=hidden;rotatable=0;points=[[0,0.5],[1,0.5]];portConstraint=eastwest;" parent="75Pp35tg5ylx49S4lADa-49" vertex="1">
          <mxGeometry y="26" width="220" height="26" as="geometry" />
        </mxCell>
        <mxCell id="75Pp35tg5ylx49S4lADa-53" value="- Кол-во спальных мест: Целый" style="text;strokeColor=none;fillColor=none;align=left;verticalAlign=top;spacingLeft=4;spacingRight=4;overflow=hidden;rotatable=0;points=[[0,0.5],[1,0.5]];portConstraint=eastwest;" parent="75Pp35tg5ylx49S4lADa-49" vertex="1">
          <mxGeometry y="52" width="220" height="26" as="geometry" />
        </mxCell>
        <mxCell id="75Pp35tg5ylx49S4lADa-51" value="" style="line;strokeWidth=1;fillColor=none;align=left;verticalAlign=middle;spacingTop=-1;spacingLeft=3;spacingRight=3;rotatable=0;labelPosition=right;points=[];portConstraint=eastwest;" parent="75Pp35tg5ylx49S4lADa-49" vertex="1">
          <mxGeometry y="78" width="220" height="8" as="geometry" />
        </mxCell>
        <mxCell id="T7MyWOEh3WLNHHNDLz0Q-43" value="Статус Бронирования" style="swimlane;fontStyle=1;align=center;verticalAlign=top;childLayout=stackLayout;horizontal=1;startSize=26;horizontalStack=0;resizeParent=1;resizeParentMax=0;resizeLast=0;collapsible=1;marginBottom=0;" parent="1" vertex="1">
          <mxGeometry x="1020" y="700" width="240" height="86" as="geometry" />
        </mxCell>
        <mxCell id="T7MyWOEh3WLNHHNDLz0Q-47" value="- Название: Строка" style="text;strokeColor=none;fillColor=none;align=left;verticalAlign=top;spacingLeft=4;spacingRight=4;overflow=hidden;rotatable=0;points=[[0,0.5],[1,0.5]];portConstraint=eastwest;" parent="T7MyWOEh3WLNHHNDLz0Q-43" vertex="1">
          <mxGeometry y="26" width="240" height="26" as="geometry" />
        </mxCell>
        <mxCell id="T7MyWOEh3WLNHHNDLz0Q-48" value="- Дата: Дата" style="text;strokeColor=none;fillColor=none;align=left;verticalAlign=top;spacingLeft=4;spacingRight=4;overflow=hidden;rotatable=0;points=[[0,0.5],[1,0.5]];portConstraint=eastwest;" parent="T7MyWOEh3WLNHHNDLz0Q-43" vertex="1">
          <mxGeometry y="52" width="240" height="26" as="geometry" />
        </mxCell>
        <mxCell id="T7MyWOEh3WLNHHNDLz0Q-45" value="" style="line;strokeWidth=1;fillColor=none;align=left;verticalAlign=middle;spacingTop=-1;spacingLeft=3;spacingRight=3;rotatable=0;labelPosition=right;points=[];portConstraint=eastwest;" parent="T7MyWOEh3WLNHHNDLz0Q-43" vertex="1">
          <mxGeometry y="78" width="240" height="8" as="geometry" />
        </mxCell>
        <mxCell id="75Pp35tg5ylx49S4lADa-9" value="Отзыв" style="swimlane;fontStyle=1;align=center;verticalAlign=top;childLayout=stackLayout;horizontal=1;startSize=26;horizontalStack=0;resizeParent=1;resizeParentMax=0;resizeLast=0;collapsible=1;marginBottom=0;" parent="1" vertex="1">
          <mxGeometry x="-260" y="157" width="200" height="112" as="geometry" />
        </mxCell>
        <mxCell id="75Pp35tg5ylx49S4lADa-10" value="- Оценка: Вещественный" style="text;strokeColor=none;fillColor=none;align=left;verticalAlign=top;spacingLeft=4;spacingRight=4;overflow=hidden;rotatable=0;points=[[0,0.5],[1,0.5]];portConstraint=eastwest;" parent="75Pp35tg5ylx49S4lADa-9" vertex="1">
          <mxGeometry y="26" width="200" height="26" as="geometry" />
        </mxCell>
        <mxCell id="T7MyWOEh3WLNHHNDLz0Q-2" value="- Описание: Строка" style="text;strokeColor=none;fillColor=none;align=left;verticalAlign=top;spacingLeft=4;spacingRight=4;overflow=hidden;rotatable=0;points=[[0,0.5],[1,0.5]];portConstraint=eastwest;" parent="75Pp35tg5ylx49S4lADa-9" vertex="1">
          <mxGeometry y="52" width="200" height="26" as="geometry" />
        </mxCell>
        <mxCell id="75Pp35tg5ylx49S4lADa-11" value="" style="line;strokeWidth=1;fillColor=none;align=left;verticalAlign=middle;spacingTop=-1;spacingLeft=3;spacingRight=3;rotatable=0;labelPosition=right;points=[];portConstraint=eastwest;" parent="75Pp35tg5ylx49S4lADa-9" vertex="1">
          <mxGeometry y="78" width="200" height="8" as="geometry" />
        </mxCell>
        <mxCell id="75Pp35tg5ylx49S4lADa-12" value="+рассчСрБалл(): Вещественный" style="text;strokeColor=none;fillColor=none;align=left;verticalAlign=top;spacingLeft=4;spacingRight=4;overflow=hidden;rotatable=0;points=[[0,0.5],[1,0.5]];portConstraint=eastwest;" parent="75Pp35tg5ylx49S4lADa-9" vertex="1">
          <mxGeometry y="86" width="200" height="26" as="geometry" />
        </mxCell>
        <mxCell id="75Pp35tg5ylx49S4lADa-13" value="Постоялец" style="swimlane;fontStyle=1;align=center;verticalAlign=top;childLayout=stackLayout;horizontal=1;startSize=26;horizontalStack=0;resizeParent=1;resizeParentMax=0;resizeLast=0;collapsible=1;marginBottom=0;" parent="1" vertex="1">
          <mxGeometry x="102" y="170" width="236" height="164" as="geometry" />
        </mxCell>
        <mxCell id="Jc_IYQ02b9zDn7LcylZJ-14" value="- Договор: Array&lt;Договор&gt;" style="text;strokeColor=none;fillColor=none;align=left;verticalAlign=top;spacingLeft=4;spacingRight=4;overflow=hidden;rotatable=0;points=[[0,0.5],[1,0.5]];portConstraint=eastwest;" parent="75Pp35tg5ylx49S4lADa-13" vertex="1">
          <mxGeometry y="26" width="236" height="26" as="geometry" />
        </mxCell>
        <mxCell id="Jc_IYQ02b9zDn7LcylZJ-5" value="- Отзывы: Array&lt;Отзыв&gt;" style="text;strokeColor=none;fillColor=none;align=left;verticalAlign=top;spacingLeft=4;spacingRight=4;overflow=hidden;rotatable=0;points=[[0,0.5],[1,0.5]];portConstraint=eastwest;" parent="75Pp35tg5ylx49S4lADa-13" vertex="1">
          <mxGeometry y="52" width="236" height="26" as="geometry" />
        </mxCell>
        <mxCell id="75Pp35tg5ylx49S4lADa-15" value="" style="line;strokeWidth=1;fillColor=none;align=left;verticalAlign=middle;spacingTop=-1;spacingLeft=3;spacingRight=3;rotatable=0;labelPosition=right;points=[];portConstraint=eastwest;" parent="75Pp35tg5ylx49S4lADa-13" vertex="1">
          <mxGeometry y="78" width="236" height="8" as="geometry" />
        </mxCell>
        <mxCell id="75Pp35tg5ylx49S4lADa-16" value="+ Заселиться(): Логический" style="text;strokeColor=none;fillColor=none;align=left;verticalAlign=top;spacingLeft=4;spacingRight=4;overflow=hidden;rotatable=0;points=[[0,0.5],[1,0.5]];portConstraint=eastwest;" parent="75Pp35tg5ylx49S4lADa-13" vertex="1">
          <mxGeometry y="86" width="236" height="26" as="geometry" />
        </mxCell>
        <mxCell id="T7MyWOEh3WLNHHNDLz0Q-4" value="+ Выселиться(): Логический" style="text;strokeColor=none;fillColor=none;align=left;verticalAlign=top;spacingLeft=4;spacingRight=4;overflow=hidden;rotatable=0;points=[[0,0.5],[1,0.5]];portConstraint=eastwest;" parent="75Pp35tg5ylx49S4lADa-13" vertex="1">
          <mxGeometry y="112" width="236" height="26" as="geometry" />
        </mxCell>
        <mxCell id="T7MyWOEh3WLNHHNDLz0Q-5" value="+ ЗабронироватьНомер(): Логический" style="text;strokeColor=none;fillColor=none;align=left;verticalAlign=top;spacingLeft=4;spacingRight=4;overflow=hidden;rotatable=0;points=[[0,0.5],[1,0.5]];portConstraint=eastwest;" parent="75Pp35tg5ylx49S4lADa-13" vertex="1">
          <mxGeometry y="138" width="236" height="26" as="geometry" />
        </mxCell>
        <mxCell id="75Pp35tg5ylx49S4lADa-21" value="Договор" style="swimlane;fontStyle=1;align=center;verticalAlign=top;childLayout=stackLayout;horizontal=1;startSize=26;horizontalStack=0;resizeParent=1;resizeParentMax=0;resizeLast=0;collapsible=1;marginBottom=0;" parent="1" vertex="1">
          <mxGeometry x="610" y="480" width="240" height="320" as="geometry" />
        </mxCell>
        <mxCell id="75Pp35tg5ylx49S4lADa-22" value="- Номер договора: Строка" style="text;strokeColor=none;fillColor=none;align=left;verticalAlign=top;spacingLeft=4;spacingRight=4;overflow=hidden;rotatable=0;points=[[0,0.5],[1,0.5]];portConstraint=eastwest;" parent="75Pp35tg5ylx49S4lADa-21" vertex="1">
          <mxGeometry y="26" width="240" height="26" as="geometry" />
        </mxCell>
        <mxCell id="75Pp35tg5ylx49S4lADa-29" value="- Дата заключения: Дата" style="text;strokeColor=none;fillColor=none;align=left;verticalAlign=top;spacingLeft=4;spacingRight=4;overflow=hidden;rotatable=0;points=[[0,0.5],[1,0.5]];portConstraint=eastwest;" parent="75Pp35tg5ylx49S4lADa-21" vertex="1">
          <mxGeometry y="52" width="240" height="26" as="geometry" />
        </mxCell>
        <mxCell id="75Pp35tg5ylx49S4lADa-30" value="- Срок действия: Целый" style="text;strokeColor=none;fillColor=none;align=left;verticalAlign=top;spacingLeft=4;spacingRight=4;overflow=hidden;rotatable=0;points=[[0,0.5],[1,0.5]];portConstraint=eastwest;" parent="75Pp35tg5ylx49S4lADa-21" vertex="1">
          <mxGeometry y="78" width="240" height="26" as="geometry" />
        </mxCell>
        <mxCell id="75Pp35tg5ylx49S4lADa-31" value="- Сумма бронирования: Вещественный" style="text;strokeColor=none;fillColor=none;align=left;verticalAlign=top;spacingLeft=4;spacingRight=4;overflow=hidden;rotatable=0;points=[[0,0.5],[1,0.5]];portConstraint=eastwest;" parent="75Pp35tg5ylx49S4lADa-21" vertex="1">
          <mxGeometry y="104" width="240" height="26" as="geometry" />
        </mxCell>
        <mxCell id="Jc_IYQ02b9zDn7LcylZJ-19" value="- Бронирование: Array&lt;Бронирование&gt;" style="text;strokeColor=none;fillColor=none;align=left;verticalAlign=top;spacingLeft=4;spacingRight=4;overflow=hidden;rotatable=0;points=[[0,0.5],[1,0.5]];portConstraint=eastwest;" parent="75Pp35tg5ylx49S4lADa-21" vertex="1">
          <mxGeometry y="130" width="240" height="26" as="geometry" />
        </mxCell>
        <mxCell id="75Pp35tg5ylx49S4lADa-32" value="- Итоговый счет: Вещественный" style="text;strokeColor=none;fillColor=none;align=left;verticalAlign=top;spacingLeft=4;spacingRight=4;overflow=hidden;rotatable=0;points=[[0,0.5],[1,0.5]];portConstraint=eastwest;" parent="75Pp35tg5ylx49S4lADa-21" vertex="1">
          <mxGeometry y="156" width="240" height="26" as="geometry" />
        </mxCell>
        <mxCell id="75Pp35tg5ylx49S4lADa-43" value="- Постоялец: Постоялец" style="text;strokeColor=none;fillColor=none;align=left;verticalAlign=top;spacingLeft=4;spacingRight=4;overflow=hidden;rotatable=0;points=[[0,0.5],[1,0.5]];portConstraint=eastwest;" parent="75Pp35tg5ylx49S4lADa-21" vertex="1">
          <mxGeometry y="182" width="240" height="26" as="geometry" />
        </mxCell>
        <mxCell id="T7MyWOEh3WLNHHNDLz0Q-73" value="- Доп. Услуги: Array&lt;Позиция счета&gt;" style="text;strokeColor=none;fillColor=none;align=left;verticalAlign=top;spacingLeft=4;spacingRight=4;overflow=hidden;rotatable=0;points=[[0,0.5],[1,0.5]];portConstraint=eastwest;" parent="75Pp35tg5ylx49S4lADa-21" vertex="1">
          <mxGeometry y="208" width="240" height="26" as="geometry" />
        </mxCell>
        <mxCell id="75Pp35tg5ylx49S4lADa-44" value="- Сотрудник: Сотрудник" style="text;strokeColor=none;fillColor=none;align=left;verticalAlign=top;spacingLeft=4;spacingRight=4;overflow=hidden;rotatable=0;points=[[0,0.5],[1,0.5]];portConstraint=eastwest;" parent="75Pp35tg5ylx49S4lADa-21" vertex="1">
          <mxGeometry y="234" width="240" height="26" as="geometry" />
        </mxCell>
        <mxCell id="75Pp35tg5ylx49S4lADa-23" value="" style="line;strokeWidth=1;fillColor=none;align=left;verticalAlign=middle;spacingTop=-1;spacingLeft=3;spacingRight=3;rotatable=0;labelPosition=right;points=[];portConstraint=eastwest;" parent="75Pp35tg5ylx49S4lADa-21" vertex="1">
          <mxGeometry y="260" width="240" height="8" as="geometry" />
        </mxCell>
        <mxCell id="75Pp35tg5ylx49S4lADa-24" value="+ ВычислитьИтоговыйСчет()" style="text;strokeColor=none;fillColor=none;align=left;verticalAlign=top;spacingLeft=4;spacingRight=4;overflow=hidden;rotatable=0;points=[[0,0.5],[1,0.5]];portConstraint=eastwest;" parent="75Pp35tg5ylx49S4lADa-21" vertex="1">
          <mxGeometry y="268" width="240" height="26" as="geometry" />
        </mxCell>
        <mxCell id="75Pp35tg5ylx49S4lADa-33" value="+ РасторгнутьДоговор()" style="text;strokeColor=none;fillColor=none;align=left;verticalAlign=top;spacingLeft=4;spacingRight=4;overflow=hidden;rotatable=0;points=[[0,0.5],[1,0.5]];portConstraint=eastwest;" parent="75Pp35tg5ylx49S4lADa-21" vertex="1">
          <mxGeometry y="294" width="240" height="26" as="geometry" />
        </mxCell>
        <mxCell id="Jc_IYQ02b9zDn7LcylZJ-3" value="" style="endArrow=diamondThin;endFill=1;endSize=24;html=1;exitX=1;exitY=0.5;exitDx=0;exitDy=0;entryX=-0.013;entryY=0.151;entryDx=0;entryDy=0;entryPerimeter=0;" parent="1" source="75Pp35tg5ylx49S4lADa-10" target="75Pp35tg5ylx49S4lADa-13" edge="1">
          <mxGeometry width="160" relative="1" as="geometry">
            <mxPoint x="30" y="220" as="sourcePoint" />
            <mxPoint x="190" y="220" as="targetPoint" />
          </mxGeometry>
        </mxCell>
        <mxCell id="75Pp35tg5ylx49S4lADa-5" value="Корпус" style="swimlane;fontStyle=1;align=center;verticalAlign=top;childLayout=stackLayout;horizontal=1;startSize=26;horizontalStack=0;resizeParent=1;resizeParentMax=0;resizeLast=0;collapsible=1;marginBottom=0;" parent="1" vertex="1">
          <mxGeometry x="1140" y="130" width="160" height="112" as="geometry" />
        </mxCell>
        <mxCell id="75Pp35tg5ylx49S4lADa-6" value="- Адрес: Строка" style="text;strokeColor=none;fillColor=none;align=left;verticalAlign=top;spacingLeft=4;spacingRight=4;overflow=hidden;rotatable=0;points=[[0,0.5],[1,0.5]];portConstraint=eastwest;" parent="75Pp35tg5ylx49S4lADa-5" vertex="1">
          <mxGeometry y="26" width="160" height="26" as="geometry" />
        </mxCell>
        <mxCell id="PwsUTAqs8J0lGebsavBl-19" value="- Класс: Строка " style="text;strokeColor=none;fillColor=none;align=left;verticalAlign=top;spacingLeft=4;spacingRight=4;overflow=hidden;rotatable=0;points=[[0,0.5],[1,0.5]];portConstraint=eastwest;" parent="75Pp35tg5ylx49S4lADa-5" vertex="1">
          <mxGeometry y="52" width="160" height="26" as="geometry" />
        </mxCell>
        <mxCell id="75Pp35tg5ylx49S4lADa-47" value="- Номера: Array&lt;Номер&gt;" style="text;strokeColor=none;fillColor=none;align=left;verticalAlign=top;spacingLeft=4;spacingRight=4;overflow=hidden;rotatable=0;points=[[0,0.5],[1,0.5]];portConstraint=eastwest;" parent="75Pp35tg5ylx49S4lADa-5" vertex="1">
          <mxGeometry y="78" width="160" height="26" as="geometry" />
        </mxCell>
        <mxCell id="75Pp35tg5ylx49S4lADa-7" value="" style="line;strokeWidth=1;fillColor=none;align=left;verticalAlign=middle;spacingTop=-1;spacingLeft=3;spacingRight=3;rotatable=0;labelPosition=right;points=[];portConstraint=eastwest;" parent="75Pp35tg5ylx49S4lADa-5" vertex="1">
          <mxGeometry y="104" width="160" height="8" as="geometry" />
        </mxCell>
        <mxCell id="T7MyWOEh3WLNHHNDLz0Q-56" value="Позиция счета" style="swimlane;fontStyle=1;align=center;verticalAlign=top;childLayout=stackLayout;horizontal=1;startSize=26;horizontalStack=0;resizeParent=1;resizeParentMax=0;resizeLast=0;collapsible=1;marginBottom=0;" parent="1" vertex="1">
          <mxGeometry x="450" y="870" width="240" height="164" as="geometry" />
        </mxCell>
        <mxCell id="T7MyWOEh3WLNHHNDLz0Q-57" value="- Количество: Целый" style="text;strokeColor=none;fillColor=none;align=left;verticalAlign=top;spacingLeft=4;spacingRight=4;overflow=hidden;rotatable=0;points=[[0,0.5],[1,0.5]];portConstraint=eastwest;" parent="T7MyWOEh3WLNHHNDLz0Q-56" vertex="1">
          <mxGeometry y="26" width="240" height="26" as="geometry" />
        </mxCell>
        <mxCell id="T7MyWOEh3WLNHHNDLz0Q-68" value="- Услуга: Услуга" style="text;strokeColor=none;fillColor=none;align=left;verticalAlign=top;spacingLeft=4;spacingRight=4;overflow=hidden;rotatable=0;points=[[0,0.5],[1,0.5]];portConstraint=eastwest;" parent="T7MyWOEh3WLNHHNDLz0Q-56" vertex="1">
          <mxGeometry y="52" width="240" height="26" as="geometry" />
        </mxCell>
        <mxCell id="T7MyWOEh3WLNHHNDLz0Q-69" value="- Скидка: Скидка" style="text;strokeColor=none;fillColor=none;align=left;verticalAlign=top;spacingLeft=4;spacingRight=4;overflow=hidden;rotatable=0;points=[[0,0.5],[1,0.5]];portConstraint=eastwest;" parent="T7MyWOEh3WLNHHNDLz0Q-56" vertex="1">
          <mxGeometry y="78" width="240" height="26" as="geometry" />
        </mxCell>
        <mxCell id="T7MyWOEh3WLNHHNDLz0Q-72" value="- Итоговая стоимость: Вещественный" style="text;strokeColor=none;fillColor=none;align=left;verticalAlign=top;spacingLeft=4;spacingRight=4;overflow=hidden;rotatable=0;points=[[0,0.5],[1,0.5]];portConstraint=eastwest;" parent="T7MyWOEh3WLNHHNDLz0Q-56" vertex="1">
          <mxGeometry y="104" width="240" height="26" as="geometry" />
        </mxCell>
        <mxCell id="T7MyWOEh3WLNHHNDLz0Q-58" value="" style="line;strokeWidth=1;fillColor=none;align=left;verticalAlign=middle;spacingTop=-1;spacingLeft=3;spacingRight=3;rotatable=0;labelPosition=right;points=[];portConstraint=eastwest;" parent="T7MyWOEh3WLNHHNDLz0Q-56" vertex="1">
          <mxGeometry y="130" width="240" height="8" as="geometry" />
        </mxCell>
        <mxCell id="T7MyWOEh3WLNHHNDLz0Q-59" value="+ ВычислитьСтоимость(): void" style="text;strokeColor=none;fillColor=none;align=left;verticalAlign=top;spacingLeft=4;spacingRight=4;overflow=hidden;rotatable=0;points=[[0,0.5],[1,0.5]];portConstraint=eastwest;" parent="T7MyWOEh3WLNHHNDLz0Q-56" vertex="1">
          <mxGeometry y="138" width="240" height="26" as="geometry" />
        </mxCell>
        <mxCell id="T7MyWOEh3WLNHHNDLz0Q-60" value="Услуга" style="swimlane;fontStyle=1;align=center;verticalAlign=top;childLayout=stackLayout;horizontal=1;startSize=26;horizontalStack=0;resizeParent=1;resizeParentMax=0;resizeLast=0;collapsible=1;marginBottom=0;" parent="1" vertex="1">
          <mxGeometry x="120" y="910" width="200" height="112" as="geometry" />
        </mxCell>
        <mxCell id="T7MyWOEh3WLNHHNDLz0Q-61" value="- Название: Строка" style="text;strokeColor=none;fillColor=none;align=left;verticalAlign=top;spacingLeft=4;spacingRight=4;overflow=hidden;rotatable=0;points=[[0,0.5],[1,0.5]];portConstraint=eastwest;" parent="T7MyWOEh3WLNHHNDLz0Q-60" vertex="1">
          <mxGeometry y="26" width="200" height="26" as="geometry" />
        </mxCell>
        <mxCell id="T7MyWOEh3WLNHHNDLz0Q-64" value="- Стоимость: Вещественный" style="text;strokeColor=none;fillColor=none;align=left;verticalAlign=top;spacingLeft=4;spacingRight=4;overflow=hidden;rotatable=0;points=[[0,0.5],[1,0.5]];portConstraint=eastwest;" parent="T7MyWOEh3WLNHHNDLz0Q-60" vertex="1">
          <mxGeometry y="52" width="200" height="26" as="geometry" />
        </mxCell>
        <mxCell id="T7MyWOEh3WLNHHNDLz0Q-62" value="" style="line;strokeWidth=1;fillColor=none;align=left;verticalAlign=middle;spacingTop=-1;spacingLeft=3;spacingRight=3;rotatable=0;labelPosition=right;points=[];portConstraint=eastwest;" parent="T7MyWOEh3WLNHHNDLz0Q-60" vertex="1">
          <mxGeometry y="78" width="200" height="8" as="geometry" />
        </mxCell>
        <mxCell id="T7MyWOEh3WLNHHNDLz0Q-63" value="+ method(type): type" style="text;strokeColor=none;fillColor=none;align=left;verticalAlign=top;spacingLeft=4;spacingRight=4;overflow=hidden;rotatable=0;points=[[0,0.5],[1,0.5]];portConstraint=eastwest;" parent="T7MyWOEh3WLNHHNDLz0Q-60" vertex="1">
          <mxGeometry y="86" width="200" height="26" as="geometry" />
        </mxCell>
        <mxCell id="Jc_IYQ02b9zDn7LcylZJ-11" value="" style="endArrow=diamondThin;endFill=1;endSize=24;html=1;entryX=-0.012;entryY=0.231;entryDx=0;entryDy=0;entryPerimeter=0;exitX=0.304;exitY=-0.01;exitDx=0;exitDy=0;exitPerimeter=0;" parent="1" source="T7MyWOEh3WLNHHNDLz0Q-56" target="75Pp35tg5ylx49S4lADa-44" edge="1">
          <mxGeometry width="160" relative="1" as="geometry">
            <mxPoint x="430" y="790" as="sourcePoint" />
            <mxPoint x="590" y="790" as="targetPoint" />
            <Array as="points">
              <mxPoint x="520" y="720" />
            </Array>
          </mxGeometry>
        </mxCell>
        <mxCell id="Jc_IYQ02b9zDn7LcylZJ-13" value="" style="endArrow=diamondThin;endFill=0;endSize=24;html=1;exitX=1;exitY=0.5;exitDx=0;exitDy=0;entryX=-0.003;entryY=-0.019;entryDx=0;entryDy=0;entryPerimeter=0;" parent="1" source="Jc_IYQ02b9zDn7LcylZJ-6" target="75Pp35tg5ylx49S4lADa-32" edge="1">
          <mxGeometry width="160" relative="1" as="geometry">
            <mxPoint x="560" y="560" as="sourcePoint" />
            <mxPoint x="480" y="590" as="targetPoint" />
          </mxGeometry>
        </mxCell>
        <mxCell id="YIouu2c4t1Xl3zVNgRc_-1" value="Человек" style="swimlane;fontStyle=1;align=center;verticalAlign=top;childLayout=stackLayout;horizontal=1;startSize=26;horizontalStack=0;resizeParent=1;resizeParentMax=0;resizeLast=0;collapsible=1;marginBottom=0;" parent="1" vertex="1">
          <mxGeometry x="-240" y="480" width="230" height="244" as="geometry" />
        </mxCell>
        <mxCell id="YIouu2c4t1Xl3zVNgRc_-2" value="# Имя : Строка" style="text;strokeColor=none;fillColor=none;align=left;verticalAlign=top;spacingLeft=4;spacingRight=4;overflow=hidden;rotatable=0;points=[[0,0.5],[1,0.5]];portConstraint=eastwest;" parent="YIouu2c4t1Xl3zVNgRc_-1" vertex="1">
          <mxGeometry y="26" width="230" height="26" as="geometry" />
        </mxCell>
        <mxCell id="YIouu2c4t1Xl3zVNgRc_-6" value="# Фамилия: Строка" style="text;strokeColor=none;fillColor=none;align=left;verticalAlign=top;spacingLeft=4;spacingRight=4;overflow=hidden;rotatable=0;points=[[0,0.5],[1,0.5]];portConstraint=eastwest;" parent="YIouu2c4t1Xl3zVNgRc_-1" vertex="1">
          <mxGeometry y="52" width="230" height="26" as="geometry" />
        </mxCell>
        <mxCell id="YIouu2c4t1Xl3zVNgRc_-7" value="# Отчество: Строка" style="text;strokeColor=none;fillColor=none;align=left;verticalAlign=top;spacingLeft=4;spacingRight=4;overflow=hidden;rotatable=0;points=[[0,0.5],[1,0.5]];portConstraint=eastwest;" parent="YIouu2c4t1Xl3zVNgRc_-1" vertex="1">
          <mxGeometry y="78" width="230" height="26" as="geometry" />
        </mxCell>
        <mxCell id="YIouu2c4t1Xl3zVNgRc_-8" value="# Адрес: Строка" style="text;strokeColor=none;fillColor=none;align=left;verticalAlign=top;spacingLeft=4;spacingRight=4;overflow=hidden;rotatable=0;points=[[0,0.5],[1,0.5]];portConstraint=eastwest;" parent="YIouu2c4t1Xl3zVNgRc_-1" vertex="1">
          <mxGeometry y="104" width="230" height="26" as="geometry" />
        </mxCell>
        <mxCell id="YIouu2c4t1Xl3zVNgRc_-5" value="# Паспорт: Строка" style="text;strokeColor=none;fillColor=none;align=left;verticalAlign=top;spacingLeft=4;spacingRight=4;overflow=hidden;rotatable=0;points=[[0,0.5],[1,0.5]];portConstraint=eastwest;" parent="YIouu2c4t1Xl3zVNgRc_-1" vertex="1">
          <mxGeometry y="130" width="230" height="26" as="geometry" />
        </mxCell>
        <mxCell id="YIouu2c4t1Xl3zVNgRc_-9" value="# Дата_рождения: Дата" style="text;strokeColor=none;fillColor=none;align=left;verticalAlign=top;spacingLeft=4;spacingRight=4;overflow=hidden;rotatable=0;points=[[0,0.5],[1,0.5]];portConstraint=eastwest;" parent="YIouu2c4t1Xl3zVNgRc_-1" vertex="1">
          <mxGeometry y="156" width="230" height="26" as="geometry" />
        </mxCell>
        <mxCell id="YIouu2c4t1Xl3zVNgRc_-10" value="# Телефон: Строка" style="text;strokeColor=none;fillColor=none;align=left;verticalAlign=top;spacingLeft=4;spacingRight=4;overflow=hidden;rotatable=0;points=[[0,0.5],[1,0.5]];portConstraint=eastwest;" parent="YIouu2c4t1Xl3zVNgRc_-1" vertex="1">
          <mxGeometry y="182" width="230" height="26" as="geometry" />
        </mxCell>
        <mxCell id="YIouu2c4t1Xl3zVNgRc_-3" value="" style="line;strokeWidth=1;fillColor=none;align=left;verticalAlign=middle;spacingTop=-1;spacingLeft=3;spacingRight=3;rotatable=0;labelPosition=right;points=[];portConstraint=eastwest;" parent="YIouu2c4t1Xl3zVNgRc_-1" vertex="1">
          <mxGeometry y="208" width="230" height="8" as="geometry" />
        </mxCell>
        <mxCell id="YIouu2c4t1Xl3zVNgRc_-4" value="+ Зарегестрироваться(): void" style="text;strokeColor=none;fillColor=none;align=left;verticalAlign=top;spacingLeft=4;spacingRight=4;overflow=hidden;rotatable=0;points=[[0,0.5],[1,0.5]];portConstraint=eastwest;" parent="YIouu2c4t1Xl3zVNgRc_-1" vertex="1">
          <mxGeometry y="216" width="230" height="28" as="geometry" />
        </mxCell>
        <mxCell id="Jc_IYQ02b9zDn7LcylZJ-17" value="" style="endArrow=diamondThin;endFill=1;endSize=24;html=1;exitX=0;exitY=0.5;exitDx=0;exitDy=0;" parent="1" source="T7MyWOEh3WLNHHNDLz0Q-39" edge="1">
          <mxGeometry width="160" relative="1" as="geometry">
            <mxPoint x="901" y="650" as="sourcePoint" />
            <mxPoint x="850" y="623" as="targetPoint" />
            <Array as="points">
              <mxPoint x="960" y="504" />
              <mxPoint x="960" y="623" />
            </Array>
          </mxGeometry>
        </mxCell>
        <mxCell id="YIouu2c4t1Xl3zVNgRc_-12" value="Сотрудник" style="swimlane;fontStyle=1;align=center;verticalAlign=top;childLayout=stackLayout;horizontal=1;startSize=26;horizontalStack=0;resizeParent=1;resizeParentMax=0;resizeLast=0;collapsible=1;marginBottom=0;" parent="1" vertex="1">
          <mxGeometry x="94" y="513" width="320" height="254" as="geometry" />
        </mxCell>
        <mxCell id="YIouu2c4t1Xl3zVNgRc_-13" value="- Номер трудового договора: Строка" style="text;strokeColor=none;fillColor=none;align=left;verticalAlign=top;spacingLeft=4;spacingRight=4;overflow=hidden;rotatable=0;points=[[0,0.5],[1,0.5]];portConstraint=eastwest;" parent="YIouu2c4t1Xl3zVNgRc_-12" vertex="1">
          <mxGeometry y="26" width="320" height="26" as="geometry" />
        </mxCell>
        <mxCell id="YIouu2c4t1Xl3zVNgRc_-17" value="- Должность: Строка" style="text;strokeColor=none;fillColor=none;align=left;verticalAlign=top;spacingLeft=4;spacingRight=4;overflow=hidden;rotatable=0;points=[[0,0.5],[1,0.5]];portConstraint=eastwest;" parent="YIouu2c4t1Xl3zVNgRc_-12" vertex="1">
          <mxGeometry y="52" width="320" height="26" as="geometry" />
        </mxCell>
        <mxCell id="YIouu2c4t1Xl3zVNgRc_-18" value="- Зарплата: Вещественный" style="text;strokeColor=none;fillColor=none;align=left;verticalAlign=top;spacingLeft=4;spacingRight=4;overflow=hidden;rotatable=0;points=[[0,0.5],[1,0.5]];portConstraint=eastwest;" parent="YIouu2c4t1Xl3zVNgRc_-12" vertex="1">
          <mxGeometry y="78" width="320" height="26" as="geometry" />
        </mxCell>
        <mxCell id="Jc_IYQ02b9zDn7LcylZJ-6" value="- ИНН: Строка" style="text;strokeColor=none;fillColor=none;align=left;verticalAlign=top;spacingLeft=4;spacingRight=4;overflow=hidden;rotatable=0;points=[[0,0.5],[1,0.5]];portConstraint=eastwest;" parent="YIouu2c4t1Xl3zVNgRc_-12" vertex="1">
          <mxGeometry y="104" width="320" height="26" as="geometry" />
        </mxCell>
        <mxCell id="YIouu2c4t1Xl3zVNgRc_-16" value="- Начальник: Сотрудник" style="text;strokeColor=none;fillColor=none;align=left;verticalAlign=top;spacingLeft=4;spacingRight=4;overflow=hidden;rotatable=0;points=[[0,0.5],[1,0.5]];portConstraint=eastwest;" parent="YIouu2c4t1Xl3zVNgRc_-12" vertex="1">
          <mxGeometry y="130" width="320" height="26" as="geometry" />
        </mxCell>
        <mxCell id="YIouu2c4t1Xl3zVNgRc_-14" value="" style="line;strokeWidth=1;fillColor=none;align=left;verticalAlign=middle;spacingTop=-1;spacingLeft=3;spacingRight=3;rotatable=0;labelPosition=right;points=[];portConstraint=eastwest;" parent="YIouu2c4t1Xl3zVNgRc_-12" vertex="1">
          <mxGeometry y="156" width="320" height="8" as="geometry" />
        </mxCell>
        <mxCell id="YIouu2c4t1Xl3zVNgRc_-15" value="+ ЗаселитьПостояльца(): Логический" style="text;strokeColor=none;fillColor=none;align=left;verticalAlign=top;spacingLeft=4;spacingRight=4;overflow=hidden;rotatable=0;points=[[0,0.5],[1,0.5]];portConstraint=eastwest;" parent="YIouu2c4t1Xl3zVNgRc_-12" vertex="1">
          <mxGeometry y="164" width="320" height="30" as="geometry" />
        </mxCell>
        <mxCell id="T7MyWOEh3WLNHHNDLz0Q-7" value="+ ВыселитьПостояльца(): Логический" style="text;strokeColor=none;fillColor=none;align=left;verticalAlign=top;spacingLeft=4;spacingRight=4;overflow=hidden;rotatable=0;points=[[0,0.5],[1,0.5]];portConstraint=eastwest;" parent="YIouu2c4t1Xl3zVNgRc_-12" vertex="1">
          <mxGeometry y="194" width="320" height="30" as="geometry" />
        </mxCell>
        <mxCell id="T7MyWOEh3WLNHHNDLz0Q-75" value="+ ЗаключитьДоговор(): Договор" style="text;strokeColor=none;fillColor=none;align=left;verticalAlign=top;spacingLeft=4;spacingRight=4;overflow=hidden;rotatable=0;points=[[0,0.5],[1,0.5]];portConstraint=eastwest;" parent="YIouu2c4t1Xl3zVNgRc_-12" vertex="1">
          <mxGeometry y="224" width="320" height="30" as="geometry" />
        </mxCell>
        <mxCell id="75Pp35tg5ylx49S4lADa-17" value="Скидка" style="swimlane;fontStyle=1;align=center;verticalAlign=top;childLayout=stackLayout;horizontal=1;startSize=26;horizontalStack=0;resizeParent=1;resizeParentMax=0;resizeLast=0;collapsible=1;marginBottom=0;" parent="1" vertex="1">
          <mxGeometry x="827" y="948" width="270" height="112" as="geometry" />
        </mxCell>
        <mxCell id="T7MyWOEh3WLNHHNDLz0Q-66" value="- Название: Строка" style="text;strokeColor=none;fillColor=none;align=left;verticalAlign=top;spacingLeft=4;spacingRight=4;overflow=hidden;rotatable=0;points=[[0,0.5],[1,0.5]];portConstraint=eastwest;" parent="75Pp35tg5ylx49S4lADa-17" vertex="1">
          <mxGeometry y="26" width="270" height="26" as="geometry" />
        </mxCell>
        <mxCell id="75Pp35tg5ylx49S4lADa-18" value="- Скидка для ЮР: Вещественный" style="text;strokeColor=none;fillColor=none;align=left;verticalAlign=top;spacingLeft=4;spacingRight=4;overflow=hidden;rotatable=0;points=[[0,0.5],[1,0.5]];portConstraint=eastwest;" parent="75Pp35tg5ylx49S4lADa-17" vertex="1">
          <mxGeometry y="52" width="270" height="26" as="geometry" />
        </mxCell>
        <mxCell id="T7MyWOEh3WLNHHNDLz0Q-65" value="- Скидка для Физ: Вещественный" style="text;strokeColor=none;fillColor=none;align=left;verticalAlign=top;spacingLeft=4;spacingRight=4;overflow=hidden;rotatable=0;points=[[0,0.5],[1,0.5]];portConstraint=eastwest;" parent="75Pp35tg5ylx49S4lADa-17" vertex="1">
          <mxGeometry y="78" width="270" height="26" as="geometry" />
        </mxCell>
        <mxCell id="75Pp35tg5ylx49S4lADa-19" value="" style="line;strokeWidth=1;fillColor=none;align=left;verticalAlign=middle;spacingTop=-1;spacingLeft=3;spacingRight=3;rotatable=0;labelPosition=right;points=[];portConstraint=eastwest;" parent="75Pp35tg5ylx49S4lADa-17" vertex="1">
          <mxGeometry y="104" width="270" height="8" as="geometry" />
        </mxCell>
        <mxCell id="PwsUTAqs8J0lGebsavBl-2" value="Заселенный номер" style="swimlane;fontStyle=1;align=center;verticalAlign=top;childLayout=stackLayout;horizontal=1;startSize=26;horizontalStack=0;resizeParent=1;resizeParentMax=0;resizeLast=0;collapsible=1;marginBottom=0;" parent="1" vertex="1">
          <mxGeometry x="380" y="280" width="200" height="86" as="geometry" />
        </mxCell>
        <mxCell id="PwsUTAqs8J0lGebsavBl-3" value="- Номер: Номер" style="text;strokeColor=none;fillColor=none;align=left;verticalAlign=top;spacingLeft=4;spacingRight=4;overflow=hidden;rotatable=0;points=[[0,0.5],[1,0.5]];portConstraint=eastwest;" parent="PwsUTAqs8J0lGebsavBl-2" vertex="1">
          <mxGeometry y="26" width="200" height="26" as="geometry" />
        </mxCell>
        <mxCell id="PwsUTAqs8J0lGebsavBl-5" value="- Постояльцы: Array&lt;Постоялец&gt;" style="text;strokeColor=none;fillColor=none;align=left;verticalAlign=top;spacingLeft=4;spacingRight=4;overflow=hidden;rotatable=0;points=[[0,0.5],[1,0.5]];portConstraint=eastwest;" parent="PwsUTAqs8J0lGebsavBl-2" vertex="1">
          <mxGeometry y="52" width="200" height="26" as="geometry" />
        </mxCell>
        <mxCell id="PwsUTAqs8J0lGebsavBl-6" value="" style="line;strokeWidth=1;fillColor=none;align=left;verticalAlign=middle;spacingTop=-1;spacingLeft=3;spacingRight=3;rotatable=0;labelPosition=right;points=[];portConstraint=eastwest;" parent="PwsUTAqs8J0lGebsavBl-2" vertex="1">
          <mxGeometry y="78" width="200" height="8" as="geometry" />
        </mxCell>
        <mxCell id="PwsUTAqs8J0lGebsavBl-7" value="" style="endArrow=diamondThin;endFill=0;endSize=24;html=1;entryX=0.057;entryY=-0.033;entryDx=0;entryDy=0;exitX=1;exitY=0.088;exitDx=0;exitDy=0;exitPerimeter=0;entryPerimeter=0;" parent="1" source="75Pp35tg5ylx49S4lADa-13" target="PwsUTAqs8J0lGebsavBl-2" edge="1">
          <mxGeometry width="160" relative="1" as="geometry">
            <mxPoint x="559.44" y="262.72399999999993" as="sourcePoint" />
            <mxPoint x="414" y="260" as="targetPoint" />
            <Array as="points">
              <mxPoint x="391" y="184" />
            </Array>
          </mxGeometry>
        </mxCell>
        <mxCell id="PwsUTAqs8J0lGebsavBl-8" value="" style="endArrow=diamondThin;endFill=0;endSize=24;html=1;exitX=0.002;exitY=0.022;exitDx=0;exitDy=0;exitPerimeter=0;" parent="1" source="75Pp35tg5ylx49S4lADa-1" target="PwsUTAqs8J0lGebsavBl-2" edge="1">
          <mxGeometry width="160" relative="1" as="geometry">
            <mxPoint x="480" y="180.852" as="sourcePoint" />
            <mxPoint x="533.4000000000001" y="323.58199999999994" as="targetPoint" />
            <Array as="points">
              <mxPoint x="533" y="23" />
            </Array>
          </mxGeometry>
        </mxCell>
        <mxCell id="PwsUTAqs8J0lGebsavBl-9" value="" style="endArrow=diamondThin;endFill=0;endSize=24;html=1;entryX=0.52;entryY=0.688;entryDx=0;entryDy=0;exitX=0.924;exitY=-0.019;exitDx=0;exitDy=0;exitPerimeter=0;entryPerimeter=0;" parent="1" source="75Pp35tg5ylx49S4lADa-13" target="T7MyWOEh3WLNHHNDLz0Q-21" edge="1">
          <mxGeometry width="160" relative="1" as="geometry">
            <mxPoint x="533.8200000000004" y="0.3280000000002019" as="sourcePoint" />
            <mxPoint x="426.5800000000001" y="300.5820000000001" as="targetPoint" />
            <Array as="points">
              <mxPoint x="320" y="90" />
            </Array>
          </mxGeometry>
        </mxCell>
        <mxCell id="PwsUTAqs8J0lGebsavBl-13" value="*..1" style="text;html=1;align=center;verticalAlign=middle;resizable=0;points=[];autosize=1;" parent="1" vertex="1">
          <mxGeometry x="1097" y="14" width="30" height="20" as="geometry" />
        </mxCell>
        <mxCell id="PwsUTAqs8J0lGebsavBl-15" value="*..1" style="text;html=1;align=center;verticalAlign=middle;resizable=0;points=[];autosize=1;" parent="1" vertex="1">
          <mxGeometry x="1156" y="605" width="30" height="20" as="geometry" />
        </mxCell>
        <mxCell id="PwsUTAqs8J0lGebsavBl-16" value="1..*" style="text;html=1;align=center;verticalAlign=middle;resizable=0;points=[];autosize=1;" parent="1" vertex="1">
          <mxGeometry x="960" y="242" width="30" height="20" as="geometry" />
        </mxCell>
        <mxCell id="PwsUTAqs8J0lGebsavBl-17" value="1..*" style="text;html=1;align=center;verticalAlign=middle;resizable=0;points=[];autosize=1;" parent="1" vertex="1">
          <mxGeometry x="338" y="968" width="30" height="20" as="geometry" />
        </mxCell>
        <mxCell id="PwsUTAqs8J0lGebsavBl-18" value="*..1" style="text;html=1;align=center;verticalAlign=middle;resizable=0;points=[];autosize=1;" parent="1" vertex="1">
          <mxGeometry x="780" y="948" width="30" height="20" as="geometry" />
        </mxCell>
        <mxCell id="PwsUTAqs8J0lGebsavBl-20" value="" style="endArrow=diamondThin;endFill=1;endSize=24;html=1;entryX=0;entryY=0.25;entryDx=0;entryDy=0;exitX=1;exitY=0.263;exitDx=0;exitDy=0;exitPerimeter=0;" parent="1" source="T7MyWOEh3WLNHHNDLz0Q-55" target="75Pp35tg5ylx49S4lADa-5" edge="1">
          <mxGeometry width="160" relative="1" as="geometry">
            <mxPoint x="1000" y="112" as="sourcePoint" />
            <mxPoint x="1160" y="112" as="targetPoint" />
          </mxGeometry>
        </mxCell>
        <mxCell id="PwsUTAqs8J0lGebsavBl-23" value="находятся в" style="text;html=1;align=center;verticalAlign=middle;resizable=0;points=[];autosize=1;" parent="1" vertex="1">
          <mxGeometry x="1001" y="130" width="80" height="20" as="geometry" />
        </mxCell>
        <mxCell id="PwsUTAqs8J0lGebsavBl-24" value="относится к" style="text;html=1;align=center;verticalAlign=middle;resizable=0;points=[];autosize=1;" parent="1" vertex="1">
          <mxGeometry x="240" y="80" width="80" height="20" as="geometry" />
        </mxCell>
        <mxCell id="PwsUTAqs8J0lGebsavBl-25" value="заселился в" style="text;html=1;align=center;verticalAlign=middle;resizable=0;points=[];autosize=1;" parent="1" vertex="1">
          <mxGeometry x="390" y="230" width="80" height="20" as="geometry" />
        </mxCell>
        <mxCell id="PwsUTAqs8J0lGebsavBl-26" value="предоставлен" style="text;html=1;align=center;verticalAlign=middle;resizable=0;points=[];autosize=1;" parent="1" vertex="1">
          <mxGeometry x="495" y="-6" width="90" height="20" as="geometry" />
        </mxCell>
        <mxCell id="PwsUTAqs8J0lGebsavBl-28" value="1..*" style="text;html=1;align=center;verticalAlign=middle;resizable=0;points=[];autosize=1;" parent="1" vertex="1">
          <mxGeometry x="1030" y="480" width="30" height="20" as="geometry" />
        </mxCell>
        <mxCell id="PwsUTAqs8J0lGebsavBl-29" value="*..1" style="text;html=1;align=center;verticalAlign=middle;resizable=0;points=[];autosize=1;" parent="1" vertex="1">
          <mxGeometry x="1095" y="130" width="30" height="20" as="geometry" />
        </mxCell>
        <mxCell id="4U_HRjzKkr9NH2hagf8w-1" value="*..1" style="text;html=1;align=center;verticalAlign=middle;resizable=0;points=[];autosize=1;" parent="1" vertex="1">
          <mxGeometry x="-45" y="170" width="30" height="20" as="geometry" />
        </mxCell>
        <mxCell id="4U_HRjzKkr9NH2hagf8w-2" value="1..*" style="text;html=1;align=center;verticalAlign=middle;resizable=0;points=[];autosize=1;" parent="1" vertex="1">
          <mxGeometry x="320" y="46" width="30" height="20" as="geometry" />
        </mxCell>
        <mxCell id="4U_HRjzKkr9NH2hagf8w-3" value="1..*" style="text;html=1;align=center;verticalAlign=middle;resizable=0;points=[];autosize=1;" parent="1" vertex="1">
          <mxGeometry x="390" y="190" width="30" height="20" as="geometry" />
        </mxCell>
        <mxCell id="4U_HRjzKkr9NH2hagf8w-4" value="1..*" style="text;html=1;align=center;verticalAlign=middle;resizable=0;points=[];autosize=1;" parent="1" vertex="1">
          <mxGeometry x="590" y="-6" width="30" height="20" as="geometry" />
        </mxCell>
        <mxCell id="4U_HRjzKkr9NH2hagf8w-5" value="*..1" style="text;html=1;align=center;verticalAlign=middle;resizable=0;points=[];autosize=1;" parent="1" vertex="1">
          <mxGeometry x="535" y="693" width="30" height="20" as="geometry" />
        </mxCell>
        <mxCell id="4U_HRjzKkr9NH2hagf8w-7" value="" style="endArrow=diamondThin;endFill=0;endSize=24;html=1;exitX=0.649;exitY=-0.011;exitDx=0;exitDy=0;entryX=0;entryY=0.5;entryDx=0;entryDy=0;exitPerimeter=0;" parent="1" source="T7MyWOEh3WLNHHNDLz0Q-60" target="T7MyWOEh3WLNHHNDLz0Q-27" edge="1">
          <mxGeometry width="160" relative="1" as="geometry">
            <mxPoint x="424.72" y="450" as="sourcePoint" />
            <mxPoint x="620.0000000000002" y="455.50599999999986" as="targetPoint" />
            <Array as="points">
              <mxPoint x="260" y="800" />
              <mxPoint x="480" y="790" />
              <mxPoint x="480" y="440" />
            </Array>
          </mxGeometry>
        </mxCell>
        <mxCell id="4U_HRjzKkr9NH2hagf8w-8" value="1..*" style="text;html=1;align=center;verticalAlign=middle;resizable=0;points=[];autosize=1;" parent="1" vertex="1">
          <mxGeometry x="230" y="810" width="30" height="20" as="geometry" />
        </mxCell>
        <mxCell id="4U_HRjzKkr9NH2hagf8w-9" value="содержаться в" style="text;html=1;align=center;verticalAlign=middle;resizable=0;points=[];autosize=1;" parent="1" vertex="1">
          <mxGeometry x="920" y="480" width="100" height="20" as="geometry" />
        </mxCell>
        <mxCell id="4U_HRjzKkr9NH2hagf8w-10" value="содержаться в" style="text;html=1;align=center;verticalAlign=middle;resizable=0;points=[];autosize=1;" parent="1" vertex="1">
          <mxGeometry x="470" y="810" width="100" height="20" as="geometry" />
        </mxCell>
        <mxCell id="4U_HRjzKkr9NH2hagf8w-11" value="составляет" style="text;html=1;align=center;verticalAlign=middle;resizable=0;points=[];autosize=1;" parent="1" vertex="1">
          <mxGeometry x="480" y="605" width="80" height="20" as="geometry" />
        </mxCell>
        <mxCell id="4U_HRjzKkr9NH2hagf8w-12" value="предоставляются" style="text;html=1;align=center;verticalAlign=middle;resizable=0;points=[];autosize=1;" parent="1" vertex="1">
          <mxGeometry x="495" y="438" width="110" height="20" as="geometry" />
        </mxCell>
        <mxCell id="4U_HRjzKkr9NH2hagf8w-13" value="пишутся" style="text;html=1;align=center;verticalAlign=middle;resizable=0;points=[];autosize=1;" parent="1" vertex="1">
          <mxGeometry x="-15" y="170" width="60" height="20" as="geometry" />
        </mxCell>
        <mxCell id="4U_HRjzKkr9NH2hagf8w-14" value="" style="endArrow=diamondThin;endFill=0;endSize=24;html=1;exitX=1;exitY=0.5;exitDx=0;exitDy=0;entryX=0;entryY=0.5;entryDx=0;entryDy=0;" parent="1" target="T7MyWOEh3WLNHHNDLz0Q-69" edge="1">
          <mxGeometry width="160" relative="1" as="geometry">
            <mxPoint x="320" y="970" as="sourcePoint" />
            <mxPoint x="515.2800000000002" y="975.5059999999999" as="targetPoint" />
          </mxGeometry>
        </mxCell>
        <mxCell id="4U_HRjzKkr9NH2hagf8w-15" value="" style="endArrow=diamondThin;endFill=0;endSize=24;html=1;exitX=0;exitY=0.5;exitDx=0;exitDy=0;entryX=1;entryY=0.5;entryDx=0;entryDy=0;" parent="1" source="T7MyWOEh3WLNHHNDLz0Q-66" target="T7MyWOEh3WLNHHNDLz0Q-69" edge="1">
          <mxGeometry width="160" relative="1" as="geometry">
            <mxPoint x="710" y="870" as="sourcePoint" />
            <mxPoint x="905.2800000000002" y="875.5059999999999" as="targetPoint" />
          </mxGeometry>
        </mxCell>
        <mxCell id="4U_HRjzKkr9NH2hagf8w-16" value="содержаться в" style="text;html=1;align=center;verticalAlign=middle;resizable=0;points=[];autosize=1;" parent="1" vertex="1">
          <mxGeometry x="690" y="928" width="100" height="20" as="geometry" />
        </mxCell>
        <mxCell id="4U_HRjzKkr9NH2hagf8w-17" value="содержаться в" style="text;html=1;align=center;verticalAlign=middle;resizable=0;points=[];autosize=1;" parent="1" vertex="1">
          <mxGeometry x="320" y="940" width="100" height="20" as="geometry" />
        </mxCell>
        <mxCell id="EcUQ_vnsYveNcTasHMaz-1" value="" style="endArrow=diamondThin;endFill=0;endSize=24;html=1;exitX=1;exitY=0.5;exitDx=0;exitDy=0;entryX=0.124;entryY=0.001;entryDx=0;entryDy=0;entryPerimeter=0;" edge="1" parent="1" source="T7MyWOEh3WLNHHNDLz0Q-13" target="T7MyWOEh3WLNHHNDLz0Q-30">
          <mxGeometry width="160" relative="1" as="geometry">
            <mxPoint x="1001" y="300" as="sourcePoint" />
            <mxPoint x="1196.2799999999997" y="305.5060000000003" as="targetPoint" />
            <Array as="points">
              <mxPoint x="1118" y="269" />
            </Array>
          </mxGeometry>
        </mxCell>
        <mxCell id="EcUQ_vnsYveNcTasHMaz-2" value="состоит в" style="text;html=1;align=center;verticalAlign=middle;resizable=0;points=[];autosize=1;" vertex="1" parent="1">
          <mxGeometry x="1006" y="242" width="70" height="20" as="geometry" />
        </mxCell>
        <mxCell id="EcUQ_vnsYveNcTasHMaz-4" value="" style="endArrow=diamondThin;endFill=0;endSize=24;html=1;exitX=1.156;exitY=1.225;exitDx=0;exitDy=0;exitPerimeter=0;" edge="1" parent="1" source="PwsUTAqs8J0lGebsavBl-13">
          <mxGeometry width="160" relative="1" as="geometry">
            <mxPoint x="960" y="-60" as="sourcePoint" />
            <mxPoint x="960" y="40" as="targetPoint" />
          </mxGeometry>
        </mxCell>
        <mxCell id="EcUQ_vnsYveNcTasHMaz-5" value="классифицирует" style="text;html=1;align=center;verticalAlign=middle;resizable=0;points=[];autosize=1;" vertex="1" parent="1">
          <mxGeometry x="985" y="14" width="110" height="20" as="geometry" />
        </mxCell>
        <mxCell id="EcUQ_vnsYveNcTasHMaz-6" value="" style="endArrow=diamondThin;endFill=0;endSize=24;html=1;exitX=0.458;exitY=0;exitDx=0;exitDy=0;exitPerimeter=0;entryX=0.183;entryY=1.058;entryDx=0;entryDy=0;entryPerimeter=0;" edge="1" parent="1" source="T7MyWOEh3WLNHHNDLz0Q-43" target="T7MyWOEh3WLNHHNDLz0Q-35">
          <mxGeometry width="160" relative="1" as="geometry">
            <mxPoint x="1461.6799999999998" y="690" as="sourcePoint" />
            <mxPoint x="1290" y="691.5" as="targetPoint" />
          </mxGeometry>
        </mxCell>
        <mxCell id="EcUQ_vnsYveNcTasHMaz-7" value="определяет" style="text;html=1;align=center;verticalAlign=middle;resizable=0;points=[];autosize=1;" vertex="1" parent="1">
          <mxGeometry x="1131" y="640" width="80" height="20" as="geometry" />
        </mxCell>
      </root>
    </mxGraphModel>
  </diagram>
</mxfile>
